<?xml version="1.0" standalone="no"?>
<!DOCTYPE svg PUBLIC "-//W3C//DTD SVG 20010904//EN"
 "http://www.w3.org/TR/2001/REC-SVG-20010904/DTD/svg10.dtd">
<svg version="1.0" xmlns="http://www.w3.org/2000/svg"
 width="4761.000000pt" height="4761.000000pt" viewBox="0 0 4761.000000 4761.000000"
 preserveAspectRatio="xMidYMid meet">
<metadata>
Created by potrace 1.11, written by Peter Selinger 2001-2013
</metadata>
<g transform="translate(0.000000,4761.000000) scale(0.100000,-0.100000)"
fill="#000000" stroke="none">
<path d="M8228 40554 l-68 -56 0 -11847 c0 -8129 3 -11857 10 -11881 6 -19 31
-289 55 -600 84 -1059 122 -1390 216 -1900 299 -1614 866 -2975 1706 -4088
256 -339 451 -561 792 -902 524 -523 1034 -934 1761 -1420 520 -347 841 -542
2195 -1335 608 -356 1067 -630 1435 -857 627 -386 1075 -630 2175 -1181 794
-399 1189 -609 1565 -835 1387 -832 2552 -1965 3493 -3397 68 -104 133 -197
143 -206 67 -58 149 -63 212 -12 20 17 62 70 92 120 124 202 441 648 649 913
304 386 538 649 905 1015 790 787 1565 1351 2716 1975 124 67 594 305 1045
530 1033 514 1227 620 2025 1105 508 308 773 466 1640 975 1111 652 1356 801
1790 1085 502 329 1031 721 1395 1033 1099 945 1914 2082 2430 3392 510 1293
787 2797 835 4525 14 530 14 23747 -1 23800 -6 21 -26 54 -44 72 -30 30 -38
33 -94 33 l-62 0 -222 -218 c-391 -383 -732 -646 -1197 -924 -1022 -612 -2293
-1051 -3755 -1297 -530 -89 -973 -140 -1605 -183 -254 -18 -1539 -18 -1825 0
-1528 93 -2549 311 -3743 799 -14 6 1 -36 71 -201 31 -75 53 -110 85 -140 24
-23 52 -56 64 -74 11 -18 32 -39 47 -46 44 -23 524 -181 711 -235 663 -189
1309 -306 2120 -385 562 -55 959 -69 1742 -63 630 5 749 10 1128 42 2130 185
4017 761 5345 1633 197 129 349 242 665 495 l245 197 3 -8787 c1 -4832 -1
-8789 -4 -8792 -7 -7 -2197 -3 -2911 5 l-522 7 -4 4496 c-3 3264 -7 4525 -15
4601 -58 535 -141 850 -316 1200 -135 270 -287 479 -558 766 -43 46 -78 87
-78 92 0 4 30 23 68 41 174 85 374 244 507 402 142 170 284 415 344 595 33
100 48 184 34 184 -6 0 -48 -17 -94 -39 -195 -90 -367 -123 -634 -122 -317 0
-592 50 -1410 255 -836 210 -1152 260 -1640 261 -286 0 -387 -8 -609 -51 -409
-80 -822 -274 -1166 -550 -116 -93 -342 -315 -458 -449 -121 -141 -302 -383
-344 -460 -61 -112 -44 -190 99 -450 343 -624 851 -982 1546 -1086 532 -80
985 11 1382 276 177 118 389 319 502 476 50 70 69 78 99 43 73 -87 223 -366
297 -554 250 -628 243 -1256 -20 -1904 -210 -519 -587 -979 -1147 -1400 -559
-421 -1221 -750 -2091 -1041 -778 -260 -1578 -446 -2560 -595 -110 -17 -240
-37 -290 -45 -49 -8 -107 -16 -127 -18 l-38 -3 0 196 c0 220 -10 321 -45 463
-78 309 -311 767 -516 1012 -175 208 -310 421 -388 610 -23 55 -46 107 -50
116 -199 368 -268 536 -306 741 -8 46 -22 108 -30 138 -16 57 -19 127 -9 179
l6 31 566 2 565 3 28 100 c16 55 25 101 19 105 -5 3 -229 120 -499 260 l-490
255 384 3 c212 1 385 5 385 9 0 15 -120 150 -213 240 -178 171 -376 297 -682
434 l-167 74 319 5 318 5 32 95 c17 52 32 100 32 105 1 6 -224 123 -499 260
l-500 250 390 5 390 5 -68 85 c-102 125 -265 277 -384 357 -112 75 -356 202
-528 274 l-104 44 326 3 327 2 31 95 c16 52 30 101 30 108 0 8 -233 129 -527
274 l-528 261 460 2 460 1 -60 55 c-397 366 -881 617 -1335 694 -122 20 -110
6 -110 126 0 75 4 106 13 108 44 12 959 317 1077 359 111 40 181 73 296 141
l151 89 -41 64 -40 64 -91 -6 c-109 -7 -1299 -65 -1337 -65 l-28 0 -2 703 c-3
582 -5 698 -16 679 -10 -17 -15 -137 -22 -480 -9 -482 -16 -552 -62 -683 -26
-73 -55 -90 -76 -45 -48 105 -61 244 -72 750 -8 354 -12 443 -24 460 -35 52
-287 297 -344 335 -54 36 -63 46 -57 64 4 12 9 81 12 152 5 123 -3 218 -45
555 l-7 55 -143 3 c-78 1 -142 -1 -142 -5 0 -5 54 -58 120 -118 153 -139 174
-175 174 -295 -1 -127 -26 -170 -155 -270 -79 -60 -216 -289 -299 -499 -29
-74 -32 -87 -22 -115 18 -49 14 -75 -14 -101 -42 -39 -83 -46 -187 -30 -189
29 -301 79 -507 228 -80 58 -148 103 -152 101 -4 -3 -55 -99 -113 -214 -126
-247 -164 -308 -237 -376 -72 -68 -197 -130 -212 -106 -5 8 52 216 80 291 9
24 48 98 87 165 117 203 208 388 197 401 -18 22 -401 320 -414 323 -18 4 -80
-70 -111 -132 -28 -56 -31 -96 -12 -152 8 -22 17 -51 21 -66 l6 -28 -127 0
c-294 1 -445 82 -554 300 -29 57 -33 74 -33 145 0 99 22 149 101 232 33 36 68
86 88 131 45 96 100 241 94 247 -3 2 -81 -26 -175 -64 -1140 -462 -2337 -698
-3854 -761 -316 -13 -1154 -13 -1425 0 -2277 109 -4369 706 -5805 1655 -326
215 -599 436 -880 710 -250 244 -276 265 -331 265 -38 -1 -53 -8 -111 -56z
m16961 -4459 c-112 -58 -960 -342 -1454 -488 -350 -104 -472 -160 -592 -271
-109 -101 -154 -232 -133 -384 19 -136 77 -307 161 -474 16 -31 29 -59 29 -60
0 -2 -52 3 -116 11 -146 17 -230 6 -302 -42 -56 -38 -106 -116 -123 -194 -10
-45 -15 -52 -31 -47 -10 3 -136 54 -279 115 -144 60 -265 107 -268 104 -4 -2
-36 -66 -71 -142 -35 -76 -65 -140 -66 -142 -2 -2 -117 37 -256 87 -733 261
-1290 400 -1883 469 -218 25 -811 25 -1015 0 -168 -21 -367 -57 -528 -94
l-113 -27 -23 25 c-13 13 -142 159 -286 324 l-263 300 1807 3 c993 1 1806 5
1806 8 0 3 -124 168 -275 367 l-275 362 53 3 c161 10 4434 220 4492 220 l70 1
-66 -34z m-1205 -885 c305 -47 560 -133 808 -271 98 -55 297 -186 336 -223
l24 -21 -552 -5 -552 -5 713 -352 c393 -193 715 -357 717 -362 3 -8 -169 -11
-565 -12 l-568 0 160 -81 c88 -44 268 -128 400 -185 400 -175 567 -270 745
-424 l85 -74 -526 -5 -526 -5 693 -349 c382 -193 694 -354 694 -358 0 -4 -258
-8 -572 -9 l-573 0 135 -66 c74 -36 245 -113 380 -173 463 -203 624 -296 819
-472 l53 -48 -513 -2 -513 -3 683 -356 c376 -195 683 -359 682 -365 -1 -5
-226 -10 -575 -12 l-574 -2 -23 -92 c-16 -66 -19 -93 -11 -96 7 -2 12 -20 12
-40 0 -20 7 -66 15 -102 8 -36 24 -110 36 -165 44 -210 129 -430 253 -655 35
-63 80 -155 101 -205 91 -223 214 -418 420 -665 191 -230 410 -660 487 -959
28 -108 31 -132 36 -339 l4 -222 -1458 2 -1458 3 -48 110 c-105 240 -187 544
-222 825 -43 341 -43 579 -1 1425 62 1234 79 1911 55 2185 -28 320 -112 605
-243 822 -54 89 -270 388 -281 388 -2 0 18 -87 45 -192 165 -642 178 -1149 54
-2103 -13 -104 -40 -310 -59 -456 -74 -560 -103 -922 -112 -1399 -13 -633 20
-878 153 -1145 65 -131 134 -226 257 -352 l109 -113 -1244 2 -1244 3 -17 69
c-50 208 -72 582 -49 834 38 403 113 673 561 2027 346 1044 383 1177 429 1545
76 599 37 876 -148 1061 -116 116 -234 158 -461 166 -219 8 -432 -27 -1200
-196 -311 -68 -515 -105 -674 -120 -139 -14 -441 -14 -526 -1 -130 21 -238 99
-312 226 -67 114 -118 101 429 107 420 4 494 7 610 25 319 50 592 149 743 268
181 143 218 340 106 563 l-35 69 92 -24 c398 -107 829 -315 1363 -660 105 -68
194 -124 196 -124 3 0 40 92 84 205 43 112 82 205 86 205 4 0 134 -52 289
-116 154 -63 282 -114 283 -112 1 2 12 54 24 116 25 130 59 209 111 261 72 72
164 78 431 26 115 -22 211 -35 263 -35 79 0 227 26 227 41 0 6 -68 103 -257
366 -154 214 -226 351 -278 528 -67 230 -35 393 88 451 45 20 67 24 157 24 58
0 163 -9 234 -20z m10231 -10275 l0 -2490 -202 0 c-111 0 -204 3 -207 6 -3 3
-6 1039 -6 2303 0 2035 2 2300 15 2319 31 44 370 357 385 354 13 -2 15 -287
15 -2492z m-10238 1480 c13 -9 28 -27 33 -41 13 -33 13 -170 0 -194 -13 -25
-69 -40 -147 -40 -98 0 -120 33 -111 162 8 111 44 142 152 133 27 -3 59 -11
73 -20z m-316 -37 c17 -32 5 -180 -18 -219 -26 -44 -80 -69 -152 -69 -75 0
-86 15 -77 102 9 94 67 179 129 193 12 2 31 6 42 8 46 10 65 6 76 -15z m602
-10 c61 -34 87 -91 87 -189 0 -87 -2 -89 -77 -89 -60 0 -109 25 -139 70 -21
31 -26 54 -30 133 -5 87 -4 96 13 100 33 10 105 -3 146 -25z m255 -235 c11
-16 30 -60 42 -100 20 -60 21 -74 11 -87 -18 -21 -44 -20 -89 4 -20 10 -45 21
-54 24 -24 7 -23 32 2 63 11 14 22 49 26 84 6 52 8 57 25 49 9 -6 26 -22 37
-37z m-1204 15 c3 -13 6 -37 6 -54 0 -17 9 -43 21 -58 11 -15 18 -33 15 -42
-7 -19 -112 -66 -140 -62 -31 4 -32 48 -2 113 26 57 73 125 86 125 4 0 10 -10
14 -22z m9026 -1893 l0 -1805 -210 0 -209 0 -3 1683 c-2 925 -1 1693 1 1706 6
38 63 86 132 111 35 13 102 43 147 67 46 23 97 43 113 43 l29 0 0 -1805z
m-8334 1702 c22 -25 24 -37 24 -122 0 -89 -1 -95 -26 -114 -23 -18 -41 -21
-121 -21 -86 0 -96 2 -118 25 -26 25 -29 42 -25 135 2 64 22 107 53 120 12 6
60 9 105 7 78 -2 85 -4 108 -30z m-358 -10 c17 -20 -1 -178 -25 -219 -28 -48
-86 -78 -154 -78 -71 0 -90 14 -96 72 -12 102 32 185 117 222 43 19 144 21
158 3z m638 -6 c23 -10 53 -31 67 -46 45 -49 63 -178 31 -224 -15 -21 -23 -23
-84 -19 -55 3 -74 9 -104 32 -62 47 -76 79 -76 177 0 47 3 89 7 92 14 14 119
6 159 -12z m-992 -326 c25 -39 20 -51 -35 -74 -60 -24 -127 -28 -135 -7 -8 21
23 134 47 173 12 19 37 45 58 59 l36 24 6 -75 c4 -42 14 -86 23 -100z m1257
144 c16 -11 40 -39 53 -62 24 -42 51 -151 40 -168 -14 -23 -126 -2 -166 30
-23 19 -23 20 -6 53 10 18 21 63 24 101 4 37 11 67 16 67 6 0 23 -9 39 -21z
m-547 -232 c33 -22 50 -85 43 -162 -4 -48 -11 -64 -31 -82 -29 -25 -115 -39
-177 -29 -90 14 -119 51 -119 148 0 68 23 113 68 132 49 21 179 17 216 -7z
m-379 -17 c15 -12 17 -27 12 -91 -6 -87 -21 -123 -71 -167 -40 -35 -87 -47
-147 -39 -74 10 -99 59 -78 156 13 62 56 116 114 143 47 22 143 21 170 -2z
m711 -16 c62 -29 89 -74 97 -160 6 -54 4 -66 -15 -89 -21 -27 -23 -27 -110
-23 -140 7 -171 42 -172 193 -1 85 0 90 24 102 34 17 112 7 176 -23z m-1095
-194 c3 -41 12 -90 20 -108 13 -31 12 -35 -6 -48 -29 -21 -90 -36 -138 -32
l-42 3 1 66 c1 40 9 81 20 104 20 43 89 97 119 93 17 -3 21 -12 26 -78z m1391
29 c34 -25 78 -109 78 -152 0 -54 -15 -67 -76 -67 -59 0 -111 17 -133 44 -12
15 -11 21 7 46 18 24 22 43 22 105 l0 75 36 -15 c19 -8 49 -24 66 -36z m5828
-1449 l0 -1420 -210 0 -210 0 0 1354 c0 1071 3 1356 13 1364 20 17 350 120
390 121 16 1 17 -73 17 -1419z m-6439 1191 c27 -28 29 -34 29 -113 0 -59 -5
-90 -15 -105 -20 -28 -73 -43 -150 -43 -77 0 -130 15 -150 43 -10 15 -15 46
-15 105 0 79 2 85 29 113 29 28 32 29 136 29 104 0 107 -1 136 -29z m-411 -1
c26 -26 28 -135 3 -187 -47 -100 -213 -144 -281 -76 -23 23 -24 30 -19 98 3
40 12 86 20 102 18 34 69 59 147 72 87 14 109 12 130 -9z m741 0 c69 -19 109
-89 109 -191 0 -31 -6 -55 -19 -70 -18 -22 -25 -23 -115 -21 -155 3 -186 33
-186 178 0 104 10 114 104 114 39 0 87 -5 107 -10z m-1135 -161 c-5 -43 -3
-76 9 -116 9 -31 13 -59 8 -63 -12 -10 -110 -30 -149 -30 -64 0 -81 87 -35
178 32 62 75 90 140 91 l34 1 -7 -61z m1439 38 c60 -34 85 -78 85 -149 0 -80
-11 -98 -58 -98 -58 1 -122 16 -139 33 -14 14 -14 20 1 58 14 34 16 58 11 111
l-7 68 33 0 c19 0 52 -10 74 -23z m3919 -149 c3 -13 6 -542 6 -1175 l0 -1153
-210 0 -210 0 0 1134 c0 895 3 1136 13 1144 14 12 306 70 358 71 30 1 38 -3
43 -21z m-4569 -152 c27 -12 36 -23 46 -58 13 -50 7 -146 -12 -176 -21 -33
-65 -46 -156 -45 -142 2 -165 21 -165 145 0 85 15 122 55 138 36 14 194 12
232 -4z m297 -5 c47 -5 100 -16 116 -25 37 -19 62 -78 62 -146 0 -101 -30
-123 -153 -114 -105 8 -154 20 -166 42 -28 55 -22 201 10 233 22 22 17 21 131
10z m-701 -11 c17 -10 19 -22 19 -115 0 -123 -8 -136 -89 -154 -115 -25 -225
-3 -237 46 -9 33 2 147 16 173 12 22 42 40 85 51 46 11 184 10 206 -1z m-410
-160 c3 -47 11 -98 18 -114 6 -16 10 -35 7 -41 -7 -18 -137 -38 -168 -26 -57
21 -73 103 -37 178 23 48 52 71 102 83 68 17 71 14 78 -80z m1511 63 c38 -22
69 -79 75 -137 7 -54 -9 -84 -54 -103 -30 -12 -46 -12 -104 -2 -38 7 -69 14
-69 17 0 2 7 29 16 60 12 40 15 76 11 125 l-6 70 50 -6 c28 -4 65 -14 81 -24z
m1988 -12 c7 -13 10 -353 10 -1030 l0 -1011 -201 0 -202 0 7 48 c57 410 139
1118 189 1639 19 189 37 346 40 350 8 7 75 20 119 22 18 1 31 -6 38 -18z
m-2721 -310 c63 -13 82 -36 88 -112 7 -87 -9 -144 -45 -157 -81 -31 -227 -24
-270 13 -23 19 -27 32 -30 92 -5 88 14 138 60 158 37 16 130 19 197 6z m-385
-22 c25 -20 26 -24 26 -120 0 -94 -2 -102 -25 -125 -25 -25 -29 -26 -140 -22
-104 3 -116 5 -139 27 -23 22 -26 32 -26 97 0 63 3 76 25 103 35 41 88 57 196
60 43 1 62 -4 83 -20z m832 -14 c62 -31 74 -47 81 -119 5 -46 2 -55 -21 -84
-71 -83 -267 -66 -317 28 -35 65 -16 179 33 200 41 18 164 4 224 -25z m-1240
-33 c7 -4 12 -41 13 -92 0 -47 2 -101 3 -120 3 -29 -1 -37 -26 -48 -42 -21
-127 -8 -161 24 -25 23 -27 30 -23 94 3 60 7 73 33 100 39 41 128 64 161 42z
m1546 -18 c50 -26 68 -60 68 -132 0 -54 -4 -70 -22 -89 -19 -21 -30 -23 -113
-23 l-92 0 14 58 c8 36 11 80 8 118 -8 79 7 99 69 88 22 -3 53 -12 68 -20z
m-1130 -372 c8 -8 14 -49 16 -117 4 -100 3 -105 -22 -130 -23 -23 -31 -25
-123 -25 -123 0 -162 16 -181 75 -17 50 -9 131 16 165 10 14 34 31 53 37 45
17 223 13 241 -5z m439 -8 c26 -27 37 -129 20 -192 -16 -57 -50 -72 -166 -72
-116 0 -150 15 -166 72 -14 51 -7 162 12 184 23 28 52 34 166 31 100 -2 115
-4 134 -23z m394 12 c67 -28 96 -127 61 -211 -24 -56 -53 -68 -156 -63 -97 4
-123 16 -164 72 -16 21 -21 41 -20 86 1 65 21 105 57 120 36 14 184 12 222 -4z
m-1242 -35 c7 -7 7 -22 -3 -50 -11 -33 -11 -51 0 -101 12 -58 12 -63 -7 -81
-11 -11 -39 -23 -61 -26 -84 -11 -132 35 -132 127 0 63 20 100 69 129 38 23
112 24 134 2z m1560 -14 c71 -66 69 -176 -2 -224 -37 -25 -134 -33 -147 -12
-3 6 -7 58 -9 116 -2 129 10 153 80 153 35 0 50 -6 78 -33z m-2836 -3 c153
-31 275 -91 380 -187 51 -47 109 -117 201 -246 46 -63 98 -174 117 -247 8 -33
24 -78 35 -99 11 -22 20 -49 20 -61 0 -11 9 -47 20 -80 53 -154 101 -504 140
-1024 40 -539 86 -807 183 -1060 73 -192 197 -362 333 -456 29 -20 55 -43 59
-51 12 -34 -125 12 -224 75 -181 114 -321 372 -390 717 -29 147 -38 222 -71
630 -46 554 -76 814 -136 1145 -47 265 -175 517 -335 664 -128 116 -282 216
-418 272 -52 22 -54 24 -23 24 18 0 67 -7 109 -16z m4023 -13 c-160 -70 -302
-174 -455 -333 -100 -104 -113 -123 -148 -204 -140 -334 -190 -595 -242 -1262
-14 -180 -32 -392 -41 -472 -63 -612 -157 -892 -365 -1083 -87 -82 -232 -160
-285 -155 l-36 3 81 64 c249 195 384 477 450 936 26 183 35 270 71 690 35 419
52 552 91 749 54 274 103 416 207 601 113 203 235 326 409 414 83 41 214 77
293 79 32 1 30 -1 -30 -27z m-273 -379 c-48 -55 -96 -191 -107 -302 -7 -81 -9
-86 -45 -117 -25 -21 -40 -45 -46 -72 -16 -71 -38 -233 -53 -391 -14 -146 -20
-245 -46 -750 -19 -374 -56 -611 -126 -812 -66 -190 -175 -378 -277 -481 -50
-49 -157 -133 -157 -122 0 3 29 47 64 98 83 120 130 215 176 357 68 206 93
367 134 845 38 437 54 601 77 778 35 277 84 530 114 587 7 14 18 44 24 67 6
22 26 63 45 90 19 27 46 73 60 102 15 28 59 84 99 124 71 71 72 72 75 44 2
-16 -3 -36 -11 -45z m-3516 32 c25 -12 41 -32 143 -167 88 -119 158 -324 205
-607 30 -177 76 -607 101 -930 56 -727 136 -1041 331 -1296 28 -36 49 -67 47
-70 -5 -5 -72 40 -130 88 -111 92 -230 292 -302 509 -82 244 -113 477 -136
1009 -23 548 -46 746 -116 1020 -46 179 -82 267 -163 390 -20 30 -40 61 -45
69 -6 10 -3 11 15 6 13 -4 36 -14 50 -21z m1452 -33 c14 -11 17 -33 17 -115 0
-146 0 -146 -147 -146 l-115 0 -39 39 c-37 37 -39 41 -39 104 0 83 15 102 95
122 73 18 205 16 228 -4z m378 9 c81 -15 92 -33 87 -147 -4 -128 -3 -127 -173
-131 -127 -3 -135 -2 -156 19 -20 20 -21 28 -16 116 6 90 17 130 41 145 16 11
155 10 217 -2z m472 1 c13 -5 29 -22 35 -38 17 -45 24 -132 12 -167 -16 -50
-42 -60 -171 -64 -108 -4 -119 -2 -138 17 -18 18 -21 33 -21 105 0 74 3 88 23
111 12 15 38 30 57 35 49 11 174 12 203 1z m291 -15 c37 -16 56 -55 56 -118 0
-46 -17 -83 -55 -118 -30 -28 -55 -71 -55 -95 0 -8 17 -34 39 -58 21 -23 44
-53 51 -66 25 -49 -18 -173 -70 -198 -14 -6 -47 -13 -75 -15 l-50 -3 4 93 c4
103 -4 122 -50 122 -34 0 -37 -4 -50 -77 -14 -76 -43 -129 -82 -154 -27 -17
-46 -19 -113 -17 -117 4 -127 15 -122 130 4 101 19 130 89 166 41 22 51 23
156 17 176 -11 217 14 188 112 -25 81 -13 265 18 285 19 12 85 9 121 -6z
m-1571 -18 c14 -11 18 -33 21 -116 3 -91 1 -104 -15 -112 -49 -27 -138 1 -169
52 -26 44 -28 138 -2 161 29 26 136 36 165 15z m30 -433 c-2 -55 -2 -123 0
-170 2 -39 1 -40 -32 -43 -19 -2 -54 4 -77 13 -59 22 -84 64 -84 142 0 86 24
102 145 99 l50 -1 -2 -40z m394 12 c14 -14 19 -38 21 -120 5 -134 -1 -140
-122 -138 -150 2 -196 37 -196 150 0 81 19 106 95 125 11 2 57 4 102 3 64 -2
86 -6 100 -20z m426 4 c35 -14 51 -68 45 -153 -5 -59 -10 -74 -32 -97 -25 -25
-31 -26 -134 -26 -70 0 -115 5 -130 13 -67 38 -70 221 -4 257 31 17 215 21
255 6z m-828 -385 c34 -10 40 -16 37 -37 -2 -13 -7 -67 -10 -119 l-7 -95 -41
-3 c-74 -5 -118 50 -130 160 -6 58 -4 68 15 87 24 24 72 27 136 7z m1543 -14
c17 -22 7 -147 -14 -180 -24 -36 -75 -63 -114 -60 l-35 3 -6 95 c-3 52 -9 104
-13 116 -6 17 -2 23 21 32 64 25 139 22 161 -6z m-1173 -27 c46 -18 55 -46 55
-160 0 -87 -2 -95 -22 -107 -34 -18 -152 -12 -204 12 -56 24 -74 63 -74 157 0
55 4 71 22 90 19 20 31 23 105 23 50 0 97 -6 118 -15z m882 -7 c20 -19 23 -31
23 -92 0 -133 -45 -175 -188 -178 -109 -2 -112 1 -112 118 0 52 5 105 12 120
18 38 61 53 157 54 74 0 88 -3 108 -22z m-427 -13 c36 -19 45 -48 44 -143 0
-65 -3 -76 -27 -100 -25 -25 -34 -27 -125 -30 -156 -6 -184 16 -185 146 -1 83
12 118 46 132 39 15 215 12 247 -5z m-12553 -215 l493 0 0 -5910 c0 -4176 3
-5910 11 -5910 24 0 74 40 544 435 269 226 555 464 635 530 194 158 225 189
251 249 l23 51 -3 5273 -3 5272 211 0 211 0 0 -5125 c0 -2819 4 -5125 8 -5125
4 0 122 96 261 213 140 116 448 374 685 572 292 244 441 376 462 407 19 29 36
70 42 105 7 40 8 1465 5 4501 l-6 4442 211 0 212 0 0 -4330 c0 -2381 3 -4330
6 -4330 11 0 79 56 549 450 253 212 539 451 635 531 196 162 241 209 260 271
10 35 12 729 11 3721 l-2 3677 210 0 211 0 2 -3542 3 -3542 230 193 c127 106
433 362 680 568 248 206 465 391 482 411 70 80 65 -180 63 3017 l-1 2885 211
0 210 0 0 -2714 c0 -1796 3 -2724 10 -2741 l10 -27 48 39 c26 21 281 234 567
474 286 240 576 483 645 540 98 82 130 115 152 158 l28 53 0 2104 0 2104 222
-2 222 -3 33 -220 c164 -1088 365 -2110 605 -3075 76 -307 80 -328 70 -377 -6
-29 -22 -68 -35 -87 -13 -20 -199 -226 -413 -458 -214 -233 -1034 -1127 -1823
-1988 -789 -861 -1442 -1570 -1452 -1577 -19 -14 -53 -82 -45 -90 6 -7 360 58
641 117 99 21 230 46 290 55 61 9 122 20 137 24 25 8 26 7 17 -15 -7 -21 -382
-492 -1592 -1999 -137 -170 -257 -314 -267 -318 -18 -9 -201 72 -1455 638
-258 117 -482 215 -497 219 -15 3 -38 2 -53 -4 -14 -5 -117 -94 -228 -197
-112 -104 -262 -242 -334 -307 -90 -81 -137 -131 -147 -155 -9 -23 -18 -108
-25 -227 -69 -1178 -71 -1208 -58 -1222 11 -11 82 57 411 388 271 274 408 406
434 417 20 8 57 15 82 15 68 0 1223 -192 1274 -211 18 -7 17 -9 -10 -28 -16
-11 -528 -314 -1139 -673 -610 -359 -1120 -662 -1133 -674 -17 -15 -22 -28
-18 -48 5 -23 240 -718 551 -1623 83 -243 122 -332 138 -314 3 2 53 342 112
754 59 413 111 753 115 758 3 4 94 -31 200 -78 107 -47 204 -85 215 -85 13 0
260 229 714 663 648 618 743 707 763 707 12 0 9 -280 -12 -1225 -33 -1477 -35
-1579 -20 -1614 16 -40 41 -55 245 -144 188 -82 904 -403 1002 -448 68 -32 72
-33 91 -20 14 9 -18 85 -198 476 -91 197 -250 554 -250 561 0 2 86 5 191 6
162 3 193 5 202 19 7 11 -62 367 -247 1272 -141 691 -256 1268 -256 1282 0 14
3 25 7 25 3 0 245 -123 537 -274 292 -150 646 -332 786 -404 141 -72 266 -141
279 -153 45 -42 51 -75 66 -386 28 -560 41 -733 54 -733 13 0 93 91 397 450
169 201 350 414 402 475 52 60 101 125 110 145 13 31 12 76 -7 425 -27 479
-26 473 -54 485 -20 9 -1713 483 -2122 595 -190 52 -236 70 -229 89 10 25
1926 1788 1935 1779 5 -5 2 -294 -6 -653 -20 -916 -20 -964 -2 -968 11 -2 276
387 876 1287 473 709 865 1292 871 1296 6 4 14 5 17 2 6 -7 -14 -953 -27
-1237 -86 -1854 -329 -3153 -759 -4045 -310 -642 -714 -1037 -1206 -1180 -324
-94 -639 -82 -1079 39 -71 20 -131 34 -133 32 -9 -8 20 -134 47 -209 83 -226
282 -463 526 -627 544 -365 1313 -504 2010 -365 240 48 474 143 684 279 57 36
111 66 119 66 9 0 26 -8 37 -18 12 -9 312 -340 668 -734 l646 -717 0 -1869 c0
-1028 -3 -2160 -7 -2515 -6 -617 -7 -646 -24 -631 -10 9 -74 94 -143 189 -214
295 -458 599 -721 895 -166 187 -649 669 -835 835 -761 674 -1523 1196 -2457
1683 -127 67 -619 315 -1092 552 -1058 529 -1062 531 -1751 955 -488 300 -766
466 -1990 1182 -663 389 -1007 594 -1275 763 -1366 860 -2267 1646 -2978 2601
-1163 1561 -1765 3615 -1857 6339 -7 207 -10 1193 -8 2870 l3 2554 25 14 c21
11 226 13 1224 8 660 -3 1421 -6 1693 -6z m11758 -139 c34 -7 33 0 18 -161 -7
-78 -10 -85 -31 -88 -33 -5 -90 42 -113 92 -18 40 -26 145 -12 159 8 8 97 7
138 -2z m1489 -31 c11 -45 -6 -109 -41 -150 -24 -29 -90 -70 -113 -70 -5 0
-10 21 -10 48 0 26 -5 76 -10 110 -14 97 -9 101 100 99 l65 -2 9 -35z m-1147
-30 c42 -15 51 -40 56 -153 7 -126 3 -131 -103 -125 -132 8 -180 59 -180 190
0 88 12 98 115 98 45 0 96 -5 112 -10z m865 -7 c14 -12 18 -31 18 -82 -1 -135
-56 -190 -192 -191 -94 0 -99 7 -92 123 9 155 20 165 163 166 65 1 89 -3 103
-16z m-447 -13 c62 -14 75 -38 75 -137 0 -79 -2 -86 -28 -112 -22 -23 -39 -29
-92 -34 -85 -8 -156 5 -183 32 -19 18 -23 35 -25 109 -4 101 9 128 68 142 48
11 137 11 185 0z m-742 -327 c21 -3 41 -12 44 -20 3 -7 0 -48 -7 -91 -9 -56
-10 -87 -2 -115 10 -35 9 -38 -6 -32 -72 27 -119 90 -135 178 -13 77 -1 103
42 93 14 -4 43 -9 64 -13z m1405 5 c7 -7 12 -31 12 -55 0 -60 -40 -136 -93
-174 l-42 -31 -6 64 c-3 35 -9 89 -14 120 l-8 57 29 6 c16 4 40 11 54 15 36
12 54 12 68 -2z m-1079 -96 c48 -35 65 -78 69 -175 5 -103 3 -107 -75 -107
-87 0 -137 29 -174 102 -23 44 -27 169 -6 186 34 27 146 24 186 -6z m839 6 c7
-7 12 -41 12 -82 0 -125 -57 -195 -165 -204 -30 -2 -65 -2 -79 2 -24 6 -24 8
-25 115 -1 134 7 148 95 167 77 16 147 17 162 2z m-381 -52 c27 -23 28 -29 28
-108 0 -127 -31 -158 -159 -158 -121 0 -170 52 -164 174 3 60 7 71 31 92 26
22 37 24 132 24 95 0 106 -2 132 -24z m-733 -282 c31 -14 56 -28 56 -30 0 -3
-8 -21 -19 -42 -10 -20 -22 -65 -26 -99 -6 -58 -8 -61 -26 -50 -46 28 -105
201 -79 232 17 20 28 19 94 -11z m1290 10 c20 -20 20 -29 -4 -107 -19 -61 -61
-127 -80 -127 -4 0 -11 26 -15 59 -4 32 -13 71 -21 86 -23 46 -18 60 34 82 59
26 67 27 86 7z m-1018 -114 c32 -11 62 -24 67 -29 5 -5 9 -62 10 -127 l2 -118
-33 -8 c-45 -12 -106 7 -148 45 -26 24 -38 47 -49 92 -21 86 -19 121 7 145 28
25 69 26 144 0z m788 10 c25 -9 26 -13 26 -83 0 -82 -25 -147 -71 -180 -33
-23 -102 -37 -138 -28 l-26 8 4 99 c6 157 22 176 168 193 6 0 23 -3 37 -9z
m-328 -64 c20 -28 19 -177 -1 -217 -20 -38 -50 -49 -131 -49 -74 0 -115 17
-132 55 -16 35 -16 187 1 207 19 25 35 27 145 25 90 -2 106 -5 118 -21z m-651
-266 c22 -18 18 -58 -11 -120 l-26 -55 -19 23 c-23 29 -49 113 -49 158 l0 33
45 -14 c25 -7 52 -19 60 -25z m1142 -19 c-6 -50 -44 -151 -56 -151 -14 0 -63
117 -59 140 2 18 14 29 48 42 71 27 74 25 67 -31z m-912 -106 l53 -23 4 -114
c2 -62 2 -119 0 -125 -3 -8 -23 -13 -53 -13 -40 0 -54 5 -84 31 -40 36 -58 72
-75 153 -12 60 -8 86 17 112 20 19 62 13 138 -21z m733 7 c21 -26 8 -117 -25
-181 -33 -64 -86 -101 -146 -101 l-38 0 3 127 3 128 70 27 c74 29 110 29 133
0z m-326 -62 c13 -16 18 -39 18 -89 0 -94 -15 -138 -53 -161 -64 -39 -172 -18
-202 39 -17 34 -24 151 -11 189 13 38 60 53 150 49 68 -3 82 -7 98 -27z
m-3609 -5992 c8 -47 -13 -706 -24 -749 -11 -45 -7 -42 -784 -760 -1197 -1107
-1572 -1458 -1579 -1475 -4 -9 -3 -21 1 -24 4 -4 545 -158 1200 -341 1139
-319 1193 -335 1193 -357 0 -13 -18 -43 -43 -70 -334 -366 -410 -442 -439
-442 -20 0 -332 155 -937 466 -498 257 -929 479 -957 495 -28 16 -66 29 -83
29 -30 0 -31 -1 -31 -47 0 -27 9 -88 20 -138 10 -49 60 -288 109 -530 49 -242
160 -781 245 -1198 86 -417 156 -771 156 -788 0 -18 -6 -32 -16 -36 -15 -5
-572 28 -712 43 -87 9 -83 -24 -67 544 8 272 18 738 24 1035 6 297 13 650 16
785 4 202 3 249 -9 265 -16 23 63 95 -1015 -934 -388 -370 -712 -676 -719
-678 -11 -5 -835 349 -855 367 -10 9 158 118 388 252 99 57 401 234 670 393
270 158 700 411 958 563 257 151 467 277 467 281 0 15 -76 42 -144 51 -63 8
-1500 241 -1668 270 -37 7 -72 18 -79 26 -8 10 -8 52 0 166 6 84 13 232 17
328 3 96 10 192 15 213 12 46 35 48 112 13 697 -318 1755 -786 1773 -784 16 2
61 50 151 163 70 88 548 683 1060 1322 1064 1325 942 1196 1158 1232 66 11
181 34 255 50 173 38 167 38 173 -1z m7117 -18 c321 -64 324 -65 385 -124 29
-28 509 -620 1065 -1316 557 -696 1023 -1275 1037 -1287 13 -13 34 -23 46 -23
17 0 867 377 1674 741 83 38 160 69 171 69 16 0 20 -9 25 -62 10 -96 25 -357
31 -515 5 -124 3 -144 -12 -162 -19 -24 60 -10 -1197 -216 -357 -59 -661 -113
-674 -120 -23 -11 -19 -15 85 -76 60 -36 625 -368 1256 -739 632 -371 1148
-678 1148 -681 0 -4 -177 -84 -392 -179 -420 -185 -458 -197 -513 -162 -16 11
-394 368 -839 793 -444 426 -818 779 -830 786 -11 7 -25 12 -30 13 -11 0 -4
-466 23 -1723 10 -477 17 -876 14 -887 -3 -10 -12 -22 -21 -25 -10 -4 -152
-15 -317 -25 -165 -11 -331 -21 -370 -24 -38 -3 -76 -2 -83 2 -9 7 50 314 263
1360 151 744 275 1356 275 1361 0 22 -54 21 -99 -2 -25 -14 -467 -242 -981
-507 -762 -393 -938 -481 -956 -474 -27 11 -494 517 -486 525 4 4 549 159
1212 344 663 186 1207 339 1208 340 2 2 1 12 -2 23 -6 17 -746 709 -1899 1773
-337 311 -443 414 -460 449 -21 44 -22 56 -25 404 -2 197 -1 365 2 372 8 21
43 18 266 -26z m-7990 -144 c0 -3 -4 -8 -10 -11 -5 -3 -10 -1 -10 4 0 6 5 11
10 11 6 0 10 -2 10 -4z m12755 -1938 c61 -57 146 -133 188 -171 126 -111 157
-201 157 -452 0 -125 10 -289 25 -422 6 -51 5 -63 -6 -63 -8 0 -116 102 -241
228 l-226 227 -6 105 c-16 277 -28 621 -23 634 4 9 9 16 13 16 3 0 57 -46 119
-102z m-5098 -1900 c65 -73 157 -171 204 -218 102 -100 123 -130 149 -206 22
-63 26 -190 11 -304 -5 -36 -12 -111 -16 -167 -7 -102 -7 -102 -29 -90 -13 6
-83 84 -156 172 -74 88 -175 208 -226 267 -119 140 -119 141 -105 384 16 262
20 294 36 294 7 0 66 -60 132 -132z m-6577 -442 c0 -2 -8 -10 -17 -17 -16 -13
-17 -12 -4 4 13 16 21 21 21 13z m12087 -319 c-20 -143 -287 -905 -303 -862
-8 21 -94 650 -94 685 0 21 6 42 13 49 15 11 366 169 381 170 5 1 6 -18 3 -42z
m-12357 -1 c0 -2 -8 -10 -17 -17 -16 -13 -17 -12 -4 4 13 16 21 21 21 13z
m-110 -130 c0 -2 -8 -10 -17 -17 -16 -13 -17 -12 -4 4 13 16 21 21 21 13z
m-2473 -1252 c-3 -3 -12 -4 -19 -1 -8 3 -5 6 6 6 11 1 17 -2 13 -5z m12246
-18 c21 -21 32 -322 13 -350 -17 -27 -670 -321 -692 -312 -25 10 -13 48 76
242 44 96 89 199 100 228 43 113 103 173 196 195 67 15 290 13 307 -3z"/>
<path d="M21310 35216 c0 -30 44 -155 78 -221 109 -210 339 -304 618 -250 214
41 344 170 388 387 9 42 16 82 16 88 0 7 -175 10 -550 10 -464 0 -550 -2 -550
-14z"/>
<path d="M21743 39267 c-62 -34 -113 -64 -113 -67 0 -9 211 -112 217 -106 7 7
20 236 13 236 -3 -1 -56 -29 -117 -63z"/>
<path d="M25832 39200 c3 -55 8 -103 11 -107 4 -3 49 16 101 43 52 27 92 52
88 55 -4 3 -51 29 -106 58 l-99 52 5 -101z"/>
</g>
</svg>
